<svg xmlns="http://www.w3.org/2000/svg" viewBox="0 0 964 212" width="964" height="212" font-family="-apple-system, BlinkMacSystemFont, 'Segoe UI', Roboto, sans-serif" role="img" aria-label="Any document goes into diceo.chunk() and embed-ready chunks come out. There is no intermediate file.">
<style>@media (prefers-color-scheme: dark){.bg{fill:#0d1117}.t{fill:#e8e8e8}}</style>
<rect class="bg" width="964" height="212" fill="#ffffff"/>
<path d="M 63.8 29.7 L 141.7 29.2 L 167.8 55.9 L 164.6 153.1 L 64.0 154.6 Z" fill="#f6f4ef" stroke="#4c3f6b" stroke-width="3.2" stroke-linejoin="round"/>
<path d="M 138.8 30.4 L 164.5 55.1 L 139.1 56.5 Z" fill="none" stroke="#4c3f6b" stroke-width="2.6" stroke-linejoin="round"/>
<path d="M 77.0 88.0 L 88.4 88.4 L 98.5 87.2 L 110.0 88.4 L 120.4 86.7 L 130.3 88.0" stroke="#1668b8" stroke-width="3" fill="none" stroke-linecap="round" opacity="0.55"/>
<path d="M 77.0 105.0 L 88.2 105.3 L 100.1 104.6 L 112.5 105.1 L 125.4 104.1 L 136.2 105.0" stroke="#1668b8" stroke-width="3" fill="none" stroke-linecap="round" opacity="0.55"/>
<path d="M 77.0 122.0 L 87.8 121.0 L 97.8 121.8 L 106.8 122.8 L 115.5 121.0 L 125.8 122.0" stroke="#1668b8" stroke-width="3" fill="none" stroke-linecap="round" opacity="0.55"/>
<path d="M 77.0 139.0 L 84.6 138.4 L 91.0 139.9 L 97.8 139.0 L 105.1 139.1 L 111.0 139.0" stroke="#1668b8" stroke-width="3" fill="none" stroke-linecap="round" opacity="0.55"/>
<text x="114" y="188" class="t" fill="#1a1a1a" font-size="21" font-weight="600" text-anchor="middle">Any document</text>
<path d="M 192.0 96.0 L 209.8 96.8 L 224.9 95.9 L 244.7 97.9 L 260.1 96.8 L 275.9 97.2 L 295.0 96.0" stroke="#4c3f6b" stroke-width="3.4" fill="none" stroke-linecap="round"/>
<path d="M 295.0 89.2 L 300.1 92.9 L 306.0 96.0" stroke="#4c3f6b" stroke-width="3.4" fill="none" stroke-linecap="round"/>
<path d="M 295.0 102.8 L 300.3 100.0 L 306.0 96.0" stroke="#4c3f6b" stroke-width="3.4" fill="none" stroke-linecap="round"/>
<path d="M 327.5 49.1 L 592.5 47.8 L 592.1 143.6 L 326.1 146.1 Z" fill="#d7e9fb" stroke="#1668b8" stroke-width="3.6" stroke-linejoin="round"/>
<text x="460" y="104" fill="#1668b8" font-size="24" textLength="216" lengthAdjust="spacingAndGlyphs" font-weight="600" text-anchor="middle" font-family="ui-monospace, SFMono-Regular, Menlo, Consolas, monospace">diceo.chunk()</text>
<path d="M 620.0 96.0 L 635.0 95.5 L 652.8 96.9 L 666.4 96.5 L 685.1 95.3 L 699.1 96.9 L 715.0 96.0" stroke="#4c3f6b" stroke-width="3.4" fill="none" stroke-linecap="round"/>
<path d="M 715.0 89.2 L 720.4 92.8 L 726.0 96.0" stroke="#4c3f6b" stroke-width="3.4" fill="none" stroke-linecap="round"/>
<path d="M 715.0 102.8 L 720.2 99.7 L 726.0 96.0" stroke="#4c3f6b" stroke-width="3.4" fill="none" stroke-linecap="round"/>
<path d="M 744.3 24.8 L 896.7 22.6 L 896.7 64.6 L 745.0 62.6 Z" fill="#cdeee0" stroke="#12855c" stroke-width="3.2" stroke-linejoin="round"/>
<text x="821" y="51" fill="#12855c" font-size="19" text-anchor="middle" font-family="ui-monospace, SFMono-Regular, Menlo, Consolas, monospace">chunk</text>
<path d="M 746.3 75.7 L 897.6 75.4 L 897.0 117.3 L 746.8 117.9 Z" fill="#cdeee0" stroke="#12855c" stroke-width="3.2" stroke-linejoin="round"/>
<text x="821" y="103" fill="#12855c" font-size="19" text-anchor="middle" font-family="ui-monospace, SFMono-Regular, Menlo, Consolas, monospace">chunk</text>
<path d="M 744.5 129.1 L 896.7 127.0 L 894.9 167.3 L 747.4 167.5 Z" fill="#cdeee0" stroke="#12855c" stroke-width="3.2" stroke-linejoin="round"/>
<text x="821" y="155" fill="#12855c" font-size="19" text-anchor="middle" font-family="ui-monospace, SFMono-Regular, Menlo, Consolas, monospace">chunk</text>
<text x="821" y="188" class="t" fill="#1a1a1a" font-size="21" font-weight="600" text-anchor="middle">Embed-ready chunks</text>
</svg>