<svg xmlns="http://www.w3.org/2000/svg" viewBox="0 0 940 580" width="940" height="580" font-family="-apple-system, BlinkMacSystemFont, 'Segoe UI', Roboto, sans-serif" role="img" aria-label="Retrieval quality against throughput for 6 document extraction tools on synthetic held-out PDFs, each drawn at three chunk sizes. Throughput is on a logarithmic horizontal axis, so further right is faster and higher is better. Measured on 44 synthetic held-out PDFs · 776 queries, with every arm chunked by Diceo's splitter so the chunk-size aims mean the same thing on every line. Throughput for Extractous, LiteParse, MinerU, Unstructured, Xberg is quoted from the session that timed it rather than re-measured here; only their quality is new.">
<style>@media (prefers-color-scheme: dark){.bg{fill:#0d1117}.t{fill:#e8e8e8}.d{fill:#9ca3af}.axis{stroke:#e8e8e8}.grid{stroke:#374151}.s-diceo{fill:#3bc9db;stroke:#3bc9db}.s-liteparse{fill:#9775fa;stroke:#9775fa}.s-extractous{fill:#f06595;stroke:#f06595}.s-xberg{fill:#69db7c;stroke:#69db7c}.s-unstructured{fill:#da77f2;stroke:#da77f2}.s-mineru{fill:#ffa94d;stroke:#ffa94d}}</style>
<rect class="bg" width="940" height="580" fill="#ffffff"/>
<path class="grid" d="M 98.8 56.0 L 99.5 128.9 L 99.4 201.7 L 99.5 275.0 L 98.3 347.6 L 99.6 421.2 L 98.8 494.0" stroke="#e5e7eb" stroke-width="1.2" fill="none"/>
<path class="grid" d="M 237.4 56.0 L 236.8 129.2 L 236.7 201.6 L 237.0 275.3 L 237.8 348.2 L 237.5 420.5 L 237.4 494.0" stroke="#e5e7eb" stroke-width="1.2" fill="none"/>
<path class="grid" d="M 376.1 56.0 L 376.7 129.2 L 376.5 201.3 L 375.7 275.2 L 375.7 347.7 L 376.0 421.1 L 376.1 494.0" stroke="#e5e7eb" stroke-width="1.2" fill="none"/>
<path class="grid" d="M 514.7 56.0 L 515.3 128.5 L 515.3 201.4 L 515.4 274.9 L 515.0 348.5 L 514.4 420.4 L 514.7 494.0" stroke="#e5e7eb" stroke-width="1.2" fill="none"/>
<path class="grid" d="M 653.3 56.0 L 653.8 128.6 L 653.6 202.5 L 653.5 275.0 L 653.8 348.0 L 653.6 421.4 L 653.3 494.0" stroke="#e5e7eb" stroke-width="1.2" fill="none"/>
<path class="grid" d="M 78.0 494.0 L 159.1 494.0 L 242.0 494.8 L 323.0 494.3 L 404.2 494.5 L 486.3 494.3 L 568.3 494.7 L 650.7 494.4 L 732.0 494.0" stroke="#e5e7eb" stroke-width="1.2" fill="none"/>
<path class="grid" d="M 78.0 421.0 L 159.2 420.9 L 240.9 420.9 L 323.3 421.7 L 404.7 420.8 L 487.2 421.4 L 568.0 421.2 L 651.0 420.7 L 732.0 421.0" stroke="#e5e7eb" stroke-width="1.2" fill="none"/>
<path class="grid" d="M 78.0 348.0 L 159.7 348.4 L 241.4 348.3 L 322.9 348.3 L 404.3 348.3 L 487.1 347.4 L 568.8 348.3 L 649.8 347.4 L 732.0 348.0" stroke="#e5e7eb" stroke-width="1.2" fill="none"/>
<path class="grid" d="M 78.0 275.0 L 159.9 274.9 L 242.2 274.7 L 323.7 275.5 L 405.3 275.8 L 486.1 275.4 L 568.8 274.6 L 649.8 274.7 L 732.0 275.0" stroke="#e5e7eb" stroke-width="1.2" fill="none"/>
<path class="grid" d="M 78.0 202.0 L 160.3 201.8 L 241.3 201.7 L 323.9 202.7 L 404.6 201.7 L 486.9 201.6 L 568.1 202.5 L 650.0 201.3 L 732.0 202.0" stroke="#e5e7eb" stroke-width="1.2" fill="none"/>
<path class="grid" d="M 78.0 129.0 L 159.4 128.6 L 242.2 128.4 L 322.5 128.5 L 404.7 129.2 L 486.0 128.9 L 568.4 128.9 L 649.7 128.9 L 732.0 129.0" stroke="#e5e7eb" stroke-width="1.2" fill="none"/>
<path class="grid" d="M 78.0 56.0 L 160.5 56.8 L 241.8 56.7 L 322.5 56.3 L 404.4 55.6 L 486.9 56.4 L 568.9 55.5 L 650.8 55.6 L 732.0 56.0" stroke="#e5e7eb" stroke-width="1.2" fill="none"/>
<path class="axis" d="M 78.0 494.0 L 131.5 493.9 L 187.4 493.3 L 240.8 493.9 L 296.0 494.5 L 350.7 494.3 L 406.3 493.1 L 460.7 493.2 L 513.7 493.5 L 568.4 493.4 L 622.9 494.9 L 677.5 493.7 L 732.0 494.0" stroke="#1a1a1a" stroke-width="2.2" fill="none" stroke-linecap="round"/>
<path class="axis" d="M 78.0 56.0 L 77.7 93.4 L 78.8 128.1 L 79.2 166.1 L 77.6 202.1 L 77.5 239.7 L 78.4 274.0 L 79.0 311.2 L 78.6 348.8 L 77.4 383.5 L 77.4 420.6 L 78.5 457.5 L 78.0 494.0" stroke="#1a1a1a" stroke-width="2.2" fill="none" stroke-linecap="round"/>
<path class="axis" d="M 98.8 494.0 L 98.5 496.6 L 99.2 499.2 L 98.8 501.0" stroke="#1a1a1a" stroke-width="1.8" fill="none" stroke-linecap="round"/>
<text x="98.8" y="518" class="d" fill="#6b7280" font-size="14" text-anchor="middle">0.01</text>
<path class="axis" d="M 237.4 494.0 L 238.0 496.7 L 237.1 499.2 L 237.4 501.0" stroke="#1a1a1a" stroke-width="1.8" fill="none" stroke-linecap="round"/>
<text x="237.4" y="518" class="d" fill="#6b7280" font-size="14" text-anchor="middle">0.1</text>
<path class="axis" d="M 376.1 494.0 L 376.2 495.8 L 375.5 498.5 L 376.1 501.0" stroke="#1a1a1a" stroke-width="1.8" fill="none" stroke-linecap="round"/>
<text x="376.1" y="518" class="d" fill="#6b7280" font-size="14" text-anchor="middle">1</text>
<path class="axis" d="M 514.7 494.0 L 515.2 496.0 L 514.3 498.6 L 514.7 501.0" stroke="#1a1a1a" stroke-width="1.8" fill="none" stroke-linecap="round"/>
<text x="514.7" y="518" class="d" fill="#6b7280" font-size="14" text-anchor="middle">10</text>
<path class="axis" d="M 653.3 494.0 L 653.9 496.1 L 653.3 498.5 L 653.3 501.0" stroke="#1a1a1a" stroke-width="1.8" fill="none" stroke-linecap="round"/>
<text x="653.3" y="518" class="d" fill="#6b7280" font-size="14" text-anchor="middle">100</text>
<path class="axis" d="M 71.0 494.0 L 73.6 494.0 L 75.1 493.5 L 78.0 494.0" stroke="#1a1a1a" stroke-width="1.8" fill="none" stroke-linecap="round"/>
<text x="65" y="499.0" class="d" fill="#6b7280" font-size="14" text-anchor="end">0.650</text>
<path class="axis" d="M 71.0 421.0 L 73.2 421.1 L 75.1 420.8 L 78.0 421.0" stroke="#1a1a1a" stroke-width="1.8" fill="none" stroke-linecap="round"/>
<text x="65" y="426.0" class="d" fill="#6b7280" font-size="14" text-anchor="end">0.675</text>
<path class="axis" d="M 71.0 348.0 L 73.0 347.6 L 75.1 347.7 L 78.0 348.0" stroke="#1a1a1a" stroke-width="1.8" fill="none" stroke-linecap="round"/>
<text x="65" y="353.0" class="d" fill="#6b7280" font-size="14" text-anchor="end">0.700</text>
<path class="axis" d="M 71.0 275.0 L 72.8 274.7 L 75.7 275.3 L 78.0 275.0" stroke="#1a1a1a" stroke-width="1.8" fill="none" stroke-linecap="round"/>
<text x="65" y="280.0" class="d" fill="#6b7280" font-size="14" text-anchor="end">0.725</text>
<path class="axis" d="M 71.0 202.0 L 73.6 202.4 L 75.4 202.0 L 78.0 202.0" stroke="#1a1a1a" stroke-width="1.8" fill="none" stroke-linecap="round"/>
<text x="65" y="207.0" class="d" fill="#6b7280" font-size="14" text-anchor="end">0.750</text>
<path class="axis" d="M 71.0 129.0 L 73.3 128.4 L 75.6 129.0 L 78.0 129.0" stroke="#1a1a1a" stroke-width="1.8" fill="none" stroke-linecap="round"/>
<text x="65" y="134.0" class="d" fill="#6b7280" font-size="14" text-anchor="end">0.775</text>
<path class="axis" d="M 71.0 56.0 L 72.9 56.5 L 75.5 55.8 L 78.0 56.0" stroke="#1a1a1a" stroke-width="1.8" fill="none" stroke-linecap="round"/>
<text x="65" y="61.0" class="d" fill="#6b7280" font-size="14" text-anchor="end">0.800</text>
<path class="s-liteparse" d="M 584.6 279.8 L 584.6 281.8 L 583.5 283.4 L 582.1 285.4 L 579.8 285.2 L 577.7 284.9 L 576.5 283.1 L 575.3 281.6 L 574.2 279.8 L 574.2 277.4 L 575.4 275.3 L 577.5 274.2 L 579.8 273.8 L 581.8 275.0 L 583.9 275.7 L 585.5 277.4 L 585.0 279.8 Z" fill="#5f3dc4" fill-opacity="0.55" stroke="#5f3dc4" stroke-width="1.7" stroke-linejoin="round" stroke-opacity="0.85"/>
<text x="591.8" y="284.8" class="t" fill="#1a1a1a" font-size="16.5" font-weight="500" text-anchor="start">LiteParse</text>
<path class="s-extractous" d="M 553.2 365.1 L 553.7 367.2 L 551.8 368.4 L 550.8 370.6 L 548.5 370.2 L 546.4 370.2 L 544.4 369.2 L 543.9 367.0 L 543.4 365.1 L 543.5 363.0 L 544.3 360.8 L 546.6 360.5 L 548.5 358.6 L 550.6 360.0 L 551.9 361.7 L 554.1 362.7 L 554.6 365.1 Z" fill="#a61e4d" fill-opacity="0.55" stroke="#a61e4d" stroke-width="1.7" stroke-linejoin="round" stroke-opacity="0.85"/>
<text x="560.5" y="370.1" class="t" fill="#1a1a1a" font-size="16.5" font-weight="500" text-anchor="start">Extractous</text>
<path class="s-xberg" d="M 537.3 215.8 L 535.3 217.6 L 535.3 220.3 L 532.7 220.2 L 530.9 221.6 L 528.5 221.6 L 527.5 219.1 L 526.3 217.7 L 525.8 215.8 L 526.3 213.9 L 526.4 211.3 L 528.5 210.1 L 530.9 210.0 L 533.2 210.2 L 534.5 212.1 L 536.3 213.5 L 536.1 215.8 Z" fill="#2b8a3e" fill-opacity="0.55" stroke="#2b8a3e" stroke-width="1.7" stroke-linejoin="round" stroke-opacity="0.85"/>
<text x="542.9" y="220.8" class="t" fill="#1a1a1a" font-size="16.5" font-weight="500" text-anchor="start">Xberg</text>
<path class="s-unstructured" d="M 350.4 292.3 L 350.2 294.3 L 349.2 296.1 L 347.5 297.3 L 345.4 297.7 L 343.3 297.2 L 341.9 295.8 L 339.5 294.7 L 340.5 292.3 L 339.5 289.9 L 341.8 288.7 L 343.5 287.9 L 345.4 286.0 L 347.7 286.6 L 348.8 288.9 L 351.4 289.8 L 350.9 292.3 Z" fill="#862e9c" fill-opacity="0.55" stroke="#862e9c" stroke-width="1.7" stroke-linejoin="round" stroke-opacity="0.85"/>
<text x="357.4" y="297.3" class="t" fill="#1a1a1a" font-size="16.5" font-weight="500" text-anchor="start">Unstructured</text>
<path class="s-mineru" d="M 140.8 301.3 L 150.5 301.0 L 150.5 310.7 L 141.1 311.2 Z" fill="#e8590c" fill-opacity="0.55" stroke="#e8590c" stroke-width="1.7" stroke-linejoin="round" stroke-opacity="0.85"/>
<text x="157.7" y="311.1" class="t" fill="#1a1a1a" font-size="16.5" font-weight="500" text-anchor="start">MinerU</text>
<path class="s-diceo" d="M 610.3 153.1 L 609.9 155.8 L 608.3 158.2 L 606.1 160.1 L 603.2 161.6 L 600.1 160.5 L 597.9 158.4 L 596.5 155.9 L 595.4 153.1 L 596.0 150.1 L 597.7 147.5 L 600.1 145.6 L 603.2 145.7 L 605.9 146.5 L 608.6 147.6 L 609.7 150.4 L 610.4 153.1 Z" fill="#0b7285" fill-opacity="0.95" stroke="#0b7285" stroke-width="2.2" stroke-linejoin="round" stroke-opacity="1.0"/>
<text x="615.2" y="158.1" class="t" fill="#1a1a1a" font-size="16.5" font-weight="700" text-anchor="start">Diceo</text>
<text x="746" y="64" class="d" fill="#6b7280" font-size="11" font-weight="700" letter-spacing="0.6">LICENCE</text>
<path class="d" d="M 762.0 81.0 L 761.8 83.4 L 759.8 84.8 L 758.1 86.1 L 756.0 87.1 L 753.9 86.0 L 751.7 85.3 L 751.2 83.0 L 750.0 81.0 L 750.5 78.7 L 752.2 77.2 L 753.8 75.7 L 756.0 74.8 L 758.5 75.0 L 759.8 77.2 L 760.7 79.0 L 761.6 81.0 Z" fill="#6b7280" fill-opacity="0.45" stroke="#6b7280" stroke-width="1.7" stroke-linejoin="round"/>
<text x="776" y="86" class="t" fill="#1a1a1a" font-size="12.5">Apache-2.0, MIT</text>
<path class="d" d="M 751.3 99.0 L 760.6 99.1 L 760.7 109.2 L 750.9 108.9 Z" fill="#6b7280" fill-opacity="0.45" stroke="#6b7280" stroke-width="1.7" stroke-linejoin="round"/>
<text x="776" y="108" class="t" fill="#1a1a1a" font-size="12.5">Apache-2.0 + terms</text>
<text x="405" y="536" class="t" fill="#1a1a1a" font-size="16" font-weight="600" text-anchor="middle">Throughput [doc/s/cpu]</text>
<text x="24" y="275" class="t" fill="#1a1a1a" font-size="16" font-weight="600" text-anchor="middle" transform="rotate(-90 24 275)">Retrieval Quality</text>
<path class="d" d="M 654.0 48.0 L 672.0 42.4 L 689.6 35.9 L 708.0 30.0" stroke="#6b7280" stroke-width="1.7" fill="none" stroke-linecap="round"/>
<path class="d" d="M 708.0 30.0 L 697.8 31.4 M 708.0 30.0 L 700.4 36.9" stroke="#6b7280" stroke-width="1.7" fill="none" stroke-linecap="round" stroke-linejoin="round"/>
<text x="647" y="52" class="d" fill="#6b7280" font-size="12.5" font-style="italic" text-anchor="end">better</text>
</svg>